<?xml version="1.0" standalone="no"?>
<!DOCTYPE svg PUBLIC "-//W3C//DTD SVG 20010904//EN"
 "http://www.w3.org/TR/2001/REC-SVG-20010904/DTD/svg10.dtd">
<svg version="1.0" xmlns="http://www.w3.org/2000/svg"
 width="256.000000pt" height="256.000000pt" viewBox="0 0 256.000000 256.000000"
 preserveAspectRatio="xMidYMid meet">

<g transform="translate(0.000000,256.000000) scale(0.100000,-0.100000)"
fill="#000000" stroke="none">
<path d="M1065 2544 c-523 -92 -927 -487 -1041 -1016 -25 -116 -25 -380 0
-496 131 -609 645 -1032 1255 -1032 495 0 933 272 1156 718 85 171 125 351
125 562 0 223 -41 398 -140 588 -184 358 -534 612 -930 677 -116 18 -317 18
-425 -1z m43 -691 c48 -24 73 -61 79 -117 5 -44 4 -46 -19 -46 -20 0 -26 7
-34 37 -12 47 -50 75 -113 81 -122 11 -191 -24 -191 -97 0 -54 16 -62 170 -77
69 -7 137 -18 152 -24 39 -18 61 -72 56 -132 -10 -94 -67 -139 -189 -146 -138
-8 -214 32 -239 126 -12 48 -8 62 21 62 20 0 23 -4 33 -53 13 -56 112 -87 216
-67 69 13 100 41 100 90 0 60 -20 69 -160 81 -142 11 -182 25 -205 70 -22 41
-16 120 12 157 23 31 71 61 116 73 47 12 154 2 195 -18z m573 -3 c49 -26 90
-86 97 -145 4 -43 4 -45 -22 -45 -21 0 -26 5 -26 24 0 12 -10 38 -23 57 -53
80 -182 93 -256 26 -75 -69 -83 -244 -13 -320 46 -51 155 -67 220 -33 37 19
72 69 72 104 0 18 6 22 31 22 31 0 31 -1 24 -37 -10 -56 -44 -109 -88 -140
-31 -22 -54 -28 -107 -31 -117 -7 -187 33 -231 130 -35 78 -34 202 2 279 29
62 78 107 136 126 49 16 134 8 184 -17z m-618 -631 c92 -25 159 -130 161 -254
2 -100 -19 -159 -73 -216 -127 -131 -359 -66 -379 107 -4 43 -3 46 18 42 15
-2 26 -14 35 -41 25 -74 77 -107 165 -107 59 0 97 17 133 60 64 76 62 219 -3
294 -41 46 -78 59 -150 54 -76 -5 -109 -29 -135 -96 -28 -73 -75 -71 -61 2 23
121 156 192 289 155z m598 0 c113 -38 162 -161 98 -243 -25 -32 -64 -42 -209
-55 -99 -8 -117 -13 -132 -31 -33 -41 -15 -100 37 -125 44 -20 176 -20 215 0
35 18 60 52 60 82 0 18 6 23 26 23 26 0 26 -2 21 -46 -11 -97 -75 -139 -212
-139 -149 0 -215 51 -215 165 0 103 32 123 218 139 130 11 162 25 162 72 0 69
-47 99 -155 99 -102 0 -155 -31 -155 -89 0 -16 -6 -21 -25 -21 -21 0 -25 5
-25 31 0 92 72 147 196 148 34 1 76 -4 95 -10z"/>
</g>
</svg>
